<?xml version="1.0" encoding="UTF-8" standalone="no"?>
<!DOCTYPE svg PUBLIC "-//W3C//DTD SVG 1.1//EN" "http://www.w3.org/Graphics/SVG/1.1/DTD/svg11.dtd">
<svg xmlns="http://www.w3.org/2000/svg" version="1.1" viewBox="0.00 0.00 1056.00 1094.00">
<path fill="#4A7BD0" d="
  M 520.58 98.65
  Q 522.08 98.05 522.23 96.79
  Q 522.32 96.09 522.95 96.29
  Q 523.06 96.33 523.17 96.30
  Q 523.62 96.20 523.98 95.89
  C 526.08 94.06 527.69 91.78 529.97 90.15
  Q 532.19 88.57 534.04 86.38
  A 1.53 1.52 11.6 0 1 534.76 85.91
  C 535.78 85.59 536.03 84.53 536.89 83.85
  Q 550.98 72.51 566.90 62.36
  Q 572.06 59.07 577.33 56.65
  Q 583.17 53.96 588.61 51.17
  Q 594.15 48.32 601.12 45.58
  Q 607.45 43.08 613.80 40.64
  Q 615.06 40.15 616.21 40.02
  C 617.51 39.86 618.17 39.19 619.37 38.84
  Q 627.49 36.47 635.71 34.47
  Q 637.49 34.03 639.27 33.88
  C 640.88 33.73 642.45 32.81 644.10 32.55
  Q 646.56 32.17 648.81 31.54
  Q 651.80 30.71 653.52 30.41
  Q 666.27 28.19 679.01 26.39
  C 681.81 26.00 686.05 26.06 689.56 25.54
  Q 695.56 24.65 704.69 24.81
  C 705.46 24.82 705.63 24.76 706.24 24.35
  Q 706.69 24.04 707.24 24.04
  L 755.20 23.94
  A 1.00 0.99 -0.0 0 1 756.20 24.93
  Q 756.27 37.41 756.22 48.73
  Q 756.20 52.99 755.40 57.38
  Q 754.86 60.39 754.96 63.99
  Q 755.04 67.14 754.66 70.53
  Q 754.03 76.21 753.29 82.17
  Q 753.04 84.23 752.45 86.29
  C 751.95 88.03 752.09 89.88 751.73 91.70
  C 750.42 98.42 749.16 105.00 747.32 111.50
  Q 742.71 127.85 737.71 139.95
  Q 732.96 151.47 723.44 168.47
  C 722.69 169.81 721.66 171.17 720.72 172.42
  C 719.54 173.99 719.28 175.59 717.52 176.78
  A 1.20 1.17 -17.4 0 0 717.01 177.73
  Q 717.00 177.98 716.94 178.22
  Q 716.88 178.42 716.76 178.58
  Q 713.74 182.74 710.93 187.06
  C 710.01 188.48 708.91 189.34 708.29 191.05
  A 1.09 1.09 0.0 0 0 708.34 191.91
  Q 708.99 193.17 710.29 193.01
  A 0.76 0.74 69.8 0 1 711.02 193.36
  Q 711.71 194.44 712.96 194.64
  Q 713.35 194.70 713.50 195.07
  L 713.62 195.38
  Q 713.77 195.74 714.13 195.91
  Q 717.95 197.73 721.53 200.53
  Q 721.99 200.90 722.57 201.00
  Q 723.76 201.22 724.31 202.20
  A 1.48 1.47 84.4 0 0 725.13 202.88
  Q 726.09 203.22 726.29 204.22
  Q 726.41 204.82 727.02 204.81
  L 727.97 204.80
  Q 728.46 204.79 728.85 205.10
  Q 731.71 207.31 734.90 209.01
  Q 735.33 209.25 735.57 209.67
  A 1.52 1.52 0.0 0 0 736.11 210.21
  Q 738.10 211.34 740.06 212.46
  Q 740.37 212.64 740.56 212.94
  Q 740.65 213.08 740.76 213.23
  A 1.21 1.17 -6.5 0 0 741.32 213.66
  Q 743.72 214.51 745.41 216.40
  A 2.12 2.01 -9.6 0 0 746.24 216.96
  C 747.82 217.52 748.89 218.97 750.46 219.71
  Q 751.54 220.23 752.19 221.22
  Q 752.49 221.67 752.99 221.87
  C 755.09 222.67 756.21 224.42 758.13 225.43
  C 759.84 226.33 760.86 227.69 762.37 228.79
  Q 765.28 230.92 768.12 233.35
  Q 768.83 233.96 769.69 234.35
  Q 770.34 234.65 770.58 235.32
  Q 770.75 235.79 771.24 235.93
  C 772.52 236.29 773.31 237.50 774.35 238.30
  Q 776.12 239.65 777.65 241.25
  Q 778.30 241.93 779.20 242.19
  Q 779.68 242.32 779.84 242.81
  Q 780.11 243.62 780.94 243.88
  A 1.87 1.85 77.2 0 1 781.79 244.42
  C 784.01 246.94 786.80 248.93 789.25 251.30
  Q 796.06 257.88 802.28 264.16
  C 805.33 267.24 808.02 270.67 810.99 273.88
  A 1.27 1.27 0.0 0 0 811.62 274.25
  Q 812.36 274.42 812.47 275.14
  Q 812.54 275.68 812.92 276.07
  Q 816.97 280.39 821.79 286.28
  Q 825.07 290.29 827.24 293.10
  Q 832.49 299.88 838.57 308.37
  Q 838.74 308.61 839.34 309.45
  Q 842.69 314.15 845.49 318.77
  Q 845.96 319.54 846.78 319.92
  Q 847.53 320.26 847.54 321.10
  Q 847.55 321.98 848.06 322.70
  Q 850.10 325.63 852.35 328.79
  C 853.11 329.85 852.89 330.85 854.03 331.62
  Q 854.49 331.94 854.70 332.46
  Q 855.80 335.18 857.66 337.25
  Q 857.87 337.48 857.91 337.80
  Q 857.93 337.96 857.96 338.12
  Q 857.98 338.25 858.05 338.37
  Q 861.06 343.45 863.81 348.71
  Q 863.96 349.01 864.00 349.34
  Q 864.02 349.49 864.02 349.64
  Q 864.03 350.20 864.39 350.64
  Q 866.23 352.83 866.86 355.19
  C 867.28 356.75 868.16 357.53 868.73 358.90
  Q 870.00 361.94 871.53 364.86
  Q 872.01 365.79 872.03 366.74
  Q 872.04 367.17 872.41 367.42
  C 874.30 368.69 873.32 370.57 874.66 371.99
  Q 874.97 372.31 874.97 372.76
  Q 874.96 374.41 876.31 375.58
  Q 876.79 375.99 876.88 376.60
  L 877.05 377.80
  Q 877.14 378.38 877.50 378.85
  Q 878.38 380.02 878.46 381.45
  A 1.35 1.35 0.0 0 0 878.89 382.34
  Q 880.05 383.41 879.99 384.95
  Q 879.97 385.49 880.27 385.94
  Q 881.66 388.08 882.68 390.73
  Q 883.07 391.73 883.06 392.84
  C 883.05 394.06 884.13 394.59 884.54 395.72
  Q 885.65 398.79 886.20 401.54
  A 1.63 1.62 -73.5 0 0 886.62 402.32
  Q 887.25 402.92 887.44 403.81
  Q 888.74 409.73 890.63 414.55
  Q 891.17 415.91 891.12 417.51
  A 1.57 1.52 -61.3 0 0 891.37 418.42
  C 892.75 420.49 892.48 422.57 893.44 424.70
  Q 894.11 426.19 894.13 427.92
  Q 894.14 428.53 894.48 429.04
  Q 895.63 430.76 895.90 432.80
  C 896.24 435.33 897.01 437.68 897.36 440.23
  C 897.73 442.98 898.72 445.48 899.03 448.27
  Q 899.28 450.57 899.87 452.71
  C 900.71 455.80 900.70 458.98 901.27 462.15
  Q 903.94 477.10 903.94 485.51
  Q 904.05 623.83 903.98 762.73
  Q 903.98 764.00 905.25 764.00
  L 971.89 764.00
  A 0.64 0.64 0.0 0 1 972.53 764.64
  L 972.35 826.15
  A 1.61 1.60 0.2 0 1 970.73 827.75
  Q 956.39 827.67 941.64 827.81
  Q 940.38 827.82 939.08 828.26
  A 0.69 0.67 -9.7 0 0 938.62 828.90
  L 938.79 929.75
  Q 938.80 932.41 941.48 932.42
  L 970.83 932.50
  Q 972.40 932.50 972.40 934.08
  L 972.27 973.96
  A 1.51 1.50 0.2 0 1 970.76 975.45
  Q 916.52 975.32 855.25 975.32
  Q 631.94 975.34 445.75 975.44
  Q 271.60 975.53 69.50 975.40
  Q 67.77 975.40 66.21 974.96
  A 0.69 0.69 0.0 0 1 65.70 974.28
  Q 65.97 954.64 65.72 934.43
  A 2.49 2.49 0.0 0 1 68.20 931.91
  L 96.14 931.78
  A 1.92 1.91 90.0 0 0 98.05 929.86
  L 98.30 828.81
  Q 98.30 827.32 96.81 827.34
  L 67.28 827.63
  Q 65.91 827.64 65.91 826.28
  L 65.88 764.36
  A 0.37 0.36 -0.0 0 1 66.25 764.00
  L 130.97 764.00
  A 1.02 1.02 0.0 0 0 131.99 762.98
  Q 132.01 644.63 131.98 525.41
  Q 131.98 518.94 132.80 512.54
  Q 133.95 503.65 133.91 496.38
  Q 133.91 495.80 134.28 495.36
  Q 134.76 494.79 134.77 494.00
  Q 134.82 488.30 135.35 482.27
  Q 135.94 475.63 136.93 468.43
  Q 137.00 467.93 137.34 467.56
  C 138.57 466.25 137.79 462.78 138.30 460.87
  Q 139.47 456.50 140.12 452.14
  Q 140.32 450.76 140.78 449.45
  C 141.23 448.17 140.82 446.89 141.21 445.55
  Q 143.11 439.03 144.22 432.50
  Q 144.46 431.12 145.32 429.82
  C 146.26 428.38 145.68 427.06 146.20 425.61
  Q 147.11 423.07 147.69 420.22
  Q 147.94 419.03 148.57 417.95
  C 149.17 416.91 148.85 415.90 149.24 414.79
  Q 151.08 409.59 152.86 404.12
  Q 157.38 390.23 162.87 377.28
  Q 163.73 375.25 164.51 373.33
  Q 170.64 358.22 178.77 343.12
  C 179.05 342.60 179.04 342.02 179.32 341.53
  Q 190.48 322.44 202.19 305.44
  Q 206.08 299.79 210.63 294.40
  C 211.63 293.21 212.29 291.88 213.33 290.72
  Q 215.56 288.22 217.44 285.64
  Q 219.37 283.00 221.60 280.71
  Q 226.94 275.21 232.24 269.56
  C 232.98 268.77 233.35 267.55 234.31 267.13
  A 1.92 1.91 3.7 0 0 235.16 266.39
  Q 237.22 262.94 241.28 259.66
  Q 241.78 259.26 242.37 259.05
  Q 243.04 258.82 243.17 258.15
  Q 243.27 257.60 243.67 257.22
  L 246.47 254.52
  A 1.05 1.02 -74.1 0 1 246.94 254.25
  Q 247.93 253.98 248.32 253.04
  A 1.89 1.87 84.2 0 1 248.97 252.23
  Q 251.22 250.68 253.07 248.91
  Q 256.93 245.20 261.07 241.46
  C 265.08 237.82 269.89 235.33 273.95 231.64
  Q 282.95 223.45 287.08 220.33
  Q 299.86 210.66 313.93 201.92
  C 314.59 201.51 314.93 201.03 315.63 200.64
  Q 321.88 197.16 328.25 193.67
  C 329.34 193.07 330.41 192.89 331.54 192.42
  A 1.10 1.10 0.0 0 0 331.98 190.72
  Q 329.30 187.31 326.46 183.47
  C 325.44 182.10 324.85 180.54 323.65 179.31
  Q 322.95 178.59 322.46 177.73
  C 320.04 173.53 317.07 169.66 314.72 165.28
  Q 311.49 159.23 308.18 153.42
  Q 305.44 148.59 303.25 143.23
  Q 301.17 138.11 299.18 132.95
  C 297.82 129.42 296.60 125.83 295.66 122.21
  C 295.41 121.22 294.60 120.38 294.41 119.46
  Q 293.19 113.59 291.45 108.21
  Q 290.97 106.74 290.98 105.24
  C 290.98 103.74 290.15 102.67 289.95 101.21
  Q 289.45 97.38 288.65 94.06
  Q 288.46 93.31 288.16 92.68
  Q 287.94 92.24 287.99 91.75
  Q 288.30 88.90 287.25 86.35
  Q 287.01 85.76 287.09 85.13
  Q 287.23 83.89 286.49 82.89
  Q 286.09 82.35 286.04 81.67
  C 285.95 80.13 286.27 78.55 285.98 77.05
  Q 284.93 71.78 284.82 65.41
  Q 284.76 61.56 284.13 57.50
  Q 283.49 53.29 283.86 48.26
  C 283.95 47.00 283.15 46.13 283.16 44.95
  Q 283.19 40.32 283.16 35.31
  Q 283.16 34.76 283.38 34.25
  Q 283.63 33.70 283.34 33.17
  Q 283.08 32.70 283.05 32.16
  Q 282.78 27.97 283.95 23.88
  Q 284.32 22.59 285.62 22.90
  Q 290.90 24.17 295.57 23.66
  Q 298.83 23.30 301.85 23.59
  Q 306.66 24.05 311.81 24.04
  Q 328.51 24.01 345.16 24.01
  C 348.78 24.01 352.35 24.58 356.00 25.07
  C 359.09 25.48 362.56 26.54 365.88 27.03
  C 369.28 27.53 372.31 28.51 375.57 29.19
  Q 385.62 31.26 395.70 33.06
  Q 400.61 33.94 405.96 35.65
  Q 411.08 37.28 416.40 38.33
  C 418.44 38.73 419.81 40.14 421.82 40.04
  A 1.40 1.38 -25.8 0 1 422.80 40.37
  Q 424.01 41.41 425.76 41.25
  A 1.00 0.99 70.3 0 1 426.67 41.69
  L 427.10 42.31
  Q 427.40 42.75 427.91 42.85
  Q 431.63 43.58 434.11 45.30
  Q 442.02 50.75 451.84 53.09
  Q 452.59 53.27 453.09 53.72
  Q 453.47 54.05 453.97 54.04
  Q 455.56 54.01 456.46 55.33
  Q 456.75 55.75 457.24 55.87
  Q 460.65 56.70 463.37 58.77
  Q 463.57 58.93 463.83 58.96
  Q 463.98 58.98 464.12 59.00
  Q 464.25 59.02 464.37 59.08
  C 468.23 61.15 471.66 63.77 475.50 65.75
  Q 478.75 67.42 482.07 69.26
  A 3.56 2.22 34.1 0 1 482.50 69.52
  Q 485.20 71.29 487.77 73.37
  Q 489.74 74.97 491.97 76.37
  Q 494.20 77.78 496.23 79.39
  Q 498.28 81.02 500.39 82.55
  Q 506.85 87.27 511.75 91.96
  Q 512.89 93.06 514.35 93.33
  Q 514.81 93.42 514.80 93.89
  Q 514.77 95.03 515.94 95.10
  A 0.92 0.91 77.9 0 1 516.70 95.60
  Q 517.66 97.43 519.80 98.60
  Q 520.18 98.81 520.58 98.65
  Z
  M 657.14 153.43
  C 658.03 153.10 658.68 152.82 659.36 152.15
  Q 675.64 136.08 685.11 115.26
  Q 685.30 114.85 685.71 114.64
  Q 686.16 114.42 686.27 113.94
  Q 687.10 110.39 688.55 107.30
  Q 688.97 106.39 689.01 105.37
  Q 689.03 104.86 689.27 104.41
  L 690.69 101.76
  Q 691.04 101.10 690.99 100.35
  Q 690.89 98.82 691.70 97.50
  Q 691.97 97.05 691.99 96.54
  Q 692.15 93.67 693.68 91.41
  Q 693.97 90.98 693.98 90.46
  C 694.00 89.15 693.79 87.95 694.47 86.75
  Q 695.36 85.19 695.14 83.14
  Q 695.08 82.66 694.59 82.66
  Q 693.50 82.68 692.44 83.04
  C 690.66 83.64 688.41 83.40 686.56 83.17
  C 683.92 82.86 681.18 83.10 678.69 83.63
  Q 671.78 85.12 664.15 86.57
  C 659.74 87.41 655.25 88.81 651.00 90.18
  Q 647.53 91.31 644.06 92.29
  Q 638.04 94.00 623.76 99.98
  C 619.87 101.61 616.62 103.86 612.86 105.56
  C 611.28 106.28 610.28 107.46 608.71 108.10
  Q 608.10 108.35 607.85 108.96
  Q 607.51 109.80 606.59 109.91
  Q 606.00 109.98 605.51 110.31
  Q 600.46 113.60 595.34 116.88
  C 594.38 117.49 593.86 118.37 592.83 118.85
  Q 591.84 119.31 590.90 120.00
  Q 584.37 124.75 578.40 129.51
  C 575.04 132.19 572.00 135.21 568.61 137.98
  Q 566.18 139.97 562.41 144.55
  Q 553.88 154.91 550.69 159.78
  Q 550.15 160.60 549.73 161.40
  Q 549.28 162.28 548.52 162.84
  Q 548.11 163.15 547.92 163.63
  Q 547.14 165.66 545.67 167.01
  Q 545.24 167.40 545.12 167.96
  Q 544.69 170.00 543.23 171.54
  Q 542.75 172.05 543.43 172.23
  C 544.81 172.60 547.09 173.36 548.32 172.32
  Q 548.69 172.02 549.16 172.02
  C 551.87 171.99 554.28 172.77 556.94 172.85
  C 564.96 173.11 573.24 172.83 580.75 173.25
  C 591.47 173.85 601.90 174.75 612.33 172.71
  Q 617.94 171.61 623.76 170.73
  Q 634.03 169.18 643.48 164.27
  Q 645.08 163.44 646.57 162.24
  Q 648.03 161.06 649.44 159.87
  Q 649.79 159.58 653.11 157.25
  Q 655.23 155.76 656.40 154.02
  Q 656.68 153.61 657.14 153.43
  Z
  M 491.43 165.11
  C 490.99 162.93 488.87 161.47 487.79 159.48
  Q 486.25 156.66 483.86 154.43
  Q 483.48 154.08 483.32 153.58
  Q 483.17 153.13 482.87 152.75
  Q 480.11 149.32 476.82 145.83
  Q 476.52 145.51 476.18 145.32
  Q 475.83 145.12 475.63 144.76
  Q 474.48 142.74 472.88 141.05
  Q 461.87 129.43 448.81 120.14
  Q 446.31 118.37 443.77 116.51
  C 441.10 114.56 437.92 112.88 434.98 110.97
  Q 433.04 109.70 431.31 108.84
  C 424.60 105.50 418.04 101.89 411.22 99.00
  C 409.99 98.48 408.73 98.39 407.69 97.50
  Q 407.26 97.13 406.70 97.06
  Q 405.22 96.88 403.89 96.04
  C 403.12 95.55 402.09 95.52 401.19 95.45
  A 1.02 0.98 72.6 0 1 400.46 95.05
  C 399.06 93.18 396.94 94.46 395.27 92.82
  Q 394.78 92.34 394.11 92.24
  Q 391.72 91.88 389.48 90.95
  C 388.31 90.46 387.39 91.17 386.16 90.25
  Q 384.58 89.07 382.16 89.04
  C 380.73 89.02 379.55 88.39 378.36 87.67
  A 0.92 0.87 -31.1 0 0 377.81 87.55
  L 373.82 87.89
  Q 373.42 87.92 373.23 87.56
  L 373.08 87.29
  Q 372.86 86.86 372.41 86.69
  Q 369.59 85.63 366.56 86.00
  A 1.63 1.61 -32.8 0 1 365.52 85.78
  Q 361.90 83.67 358.54 83.56
  Q 352.64 83.37 345.49 83.40
  A 0.53 0.53 0.0 0 0 344.99 84.09
  Q 345.44 85.51 345.78 86.97
  C 346.26 89.05 345.53 90.91 346.71 92.80
  Q 348.13 95.07 347.96 97.98
  Q 347.93 98.52 348.22 98.99
  Q 349.36 100.87 349.57 103.07
  Q 349.62 103.53 349.91 103.88
  Q 351.04 105.21 350.99 106.94
  A 2.15 2.05 32.9 0 0 351.23 107.95
  C 352.40 110.13 354.21 111.70 354.27 114.26
  A 1.74 1.73 24.7 0 0 354.67 115.34
  Q 355.89 116.81 356.02 118.71
  Q 356.07 119.35 356.45 119.86
  Q 358.10 122.06 359.08 124.46
  Q 360.24 127.31 362.39 129.25
  Q 362.60 129.45 362.68 129.72
  Q 362.75 129.97 362.77 130.23
  Q 362.80 130.65 363.02 131.01
  Q 375.72 151.89 397.90 163.91
  Q 402.26 166.28 406.61 167.54
  Q 407.43 167.78 408.00 168.46
  A 1.63 1.62 74.4 0 0 408.95 169.00
  Q 410.73 169.32 412.55 170.13
  C 415.94 171.64 420.78 172.56 424.06 172.77
  Q 432.56 173.31 441.83 173.18
  C 459.67 172.93 477.29 173.05 495.37 173.04
  Q 495.89 173.04 496.10 172.57
  Q 496.22 172.31 496.14 172.04
  Q 495.91 171.29 495.18 171.05
  Q 494.19 170.72 494.36 169.72
  Q 494.49 168.92 493.91 168.36
  Q 493.10 167.57 492.78 166.48
  A 0.64 0.62 4.8 0 0 492.45 166.10
  L 492.04 165.90
  A 1.10 1.08 7.6 0 1 491.43 165.11
  Z
  M 840.03 453.91
  Q 837.62 443.31 835.86 437.39
  C 832.52 426.17 828.48 413.63 824.30 403.37
  Q 814.11 378.34 798.12 354.47
  Q 788.97 340.80 778.91 328.05
  Q 778.02 326.92 777.22 325.71
  Q 776.45 324.56 775.48 323.57
  Q 772.25 320.32 769.20 316.63
  Q 762.60 308.68 756.26 302.58
  Q 749.98 296.53 742.21 289.62
  Q 732.06 280.59 721.18 272.06
  Q 716.90 268.70 711.65 265.28
  Q 706.50 261.92 701.84 258.93
  Q 688.88 250.61 675.27 241.92
  Q 664.42 234.99 656.61 232.18
  Q 653.35 231.01 650.25 229.90
  Q 647.72 229.00 645.07 229.00
  Q 515.57 229.01 386.19 228.99
  Q 385.64 228.99 385.22 229.34
  C 383.84 230.48 381.97 230.78 380.42 231.64
  C 376.72 233.71 373.22 235.95 369.25 237.71
  Q 361.42 241.19 359.29 242.54
  C 351.05 247.81 342.97 252.57 334.84 259.38
  C 332.66 261.20 330.24 262.44 328.17 264.34
  C 327.00 265.42 325.59 266.05 324.31 267.03
  Q 316.48 273.04 308.92 279.30
  Q 301.94 285.10 295.26 291.27
  Q 286.16 299.68 282.09 304.05
  Q 278.30 308.14 274.48 312.05
  Q 274.40 312.13 274.29 312.17
  Q 274.17 312.21 274.05 312.23
  Q 273.60 312.31 273.36 312.68
  C 269.34 318.77 264.57 323.55 259.64 328.59
  C 258.73 329.52 258.65 330.88 257.85 331.97
  Q 242.57 352.71 235.97 363.54
  Q 226.76 378.64 217.60 399.38
  Q 212.21 411.57 206.80 426.45
  Q 206.20 428.11 205.84 429.74
  Q 205.44 431.56 204.32 433.12
  A 1.73 1.70 -26.6 0 0 204.00 434.05
  Q 203.94 435.85 203.06 437.47
  C 202.45 438.60 202.59 439.97 202.04 441.18
  Q 199.46 446.84 198.23 453.33
  C 197.56 456.89 196.14 460.34 195.47 463.83
  Q 194.10 470.96 192.60 478.27
  C 192.10 480.73 192.34 483.25 191.40 485.48
  C 190.74 487.03 191.07 488.80 190.92 490.47
  C 190.64 493.65 191.25 496.70 190.73 499.91
  Q 190.67 500.30 190.85 500.66
  Q 190.99 500.93 190.99 501.22
  Q 191.00 532.14 191.01 562.76
  Q 191.01 564.74 191.43 566.62
  Q 192.01 569.20 191.53 571.37
  Q 191.01 573.74 191.01 576.43
  Q 190.99 669.84 191.00 763.00
  A 1.00 1.00 0.0 0 0 192.00 764.00
  L 845.50 764.00
  A 0.49 0.48 -90.0 0 0 845.98 763.51
  Q 846.03 625.99 845.99 490.58
  C 845.99 485.45 845.11 480.35 844.17 475.29
  C 843.84 473.47 844.33 471.49 843.72 469.84
  Q 843.20 468.41 842.92 467.06
  Q 841.64 460.82 840.51 454.61
  Q 840.48 454.49 840.38 454.40
  Q 840.34 454.37 840.30 454.33
  Q 840.09 454.18 840.03 453.91
  Z
  M 454.28 829.53
  A 1.58 1.58 0.0 0 0 452.70 827.95
  L 217.30 827.95
  A 1.58 1.58 0.0 0 0 215.72 829.53
  L 215.72 930.11
  A 1.58 1.58 0.0 0 0 217.30 931.69
  L 452.70 931.69
  A 1.58 1.58 0.0 0 0 454.28 930.11
  L 454.28 829.53
  Z
  M 819.96 827.88
  L 584.50 828.08
  A 1.20 1.17 90.0 0 0 583.33 829.28
  Q 583.24 876.44 583.29 923.48
  C 583.29 926.23 582.75 928.60 583.69 931.28
  Q 583.86 931.78 584.39 931.87
  Q 586.48 932.20 587.50 932.17
  Q 606.37 931.64 626.49 931.64
  Q 724.45 931.62 819.54 931.64
  A 1.75 1.74 0.0 0 0 821.29 929.90
  L 821.29 829.21
  A 1.33 1.33 0.0 0 0 819.96 827.88
  Z"
/>
<path fill="#4A7BD0" d="
  M 500.00 655.75
  L 500.00 713.00
  A 1.00 1.00 0.0 0 1 499.00 714.00
  L 413.75 714.00
  A 0.75 0.75 0.0 0 1 413.00 713.25
  L 412.99 656.25
  A 1.25 1.24 90.0 0 0 411.75 655.00
  L 376.99 655.00
  Q 376.49 655.00 376.49 654.49
  L 376.51 592.00
  A 0.24 0.24 0.0 0 1 376.75 591.76
  L 412.50 591.75
  A 0.50 0.50 0.0 0 0 413.00 591.25
  L 413.00 559.25
  A 1.25 1.25 0.0 0 0 411.75 558.00
  L 377.00 558.00
  A 0.51 0.50 0.0 0 1 376.49 557.50
  L 376.51 495.01
  A 0.23 0.23 0.0 0 1 376.74 494.78
  L 412.50 494.75
  A 0.50 0.50 0.0 0 0 413.00 494.25
  L 413.00 290.27
  Q 413.00 289.03 414.24 289.02
  Q 495.26 288.92 575.63 289.07
  C 600.74 289.12 628.12 295.04 650.19 307.72
  C 680.59 325.20 699.35 354.58 705.89 388.84
  Q 712.83 425.23 705.56 461.55
  C 702.35 477.61 695.91 493.58 686.45 506.95
  C 659.22 545.41 611.64 557.92 566.78 557.98
  Q 533.84 558.03 500.47 557.98
  A 0.48 0.47 -90.0 0 0 500.00 558.46
  L 500.00 591.25
  A 0.50 0.50 0.0 0 0 500.50 591.75
  L 592.50 591.75
  Q 592.75 591.75 592.75 592.00
  L 592.75 654.25
  Q 592.75 655.00 592.00 655.00
  L 500.75 655.00
  Q 500.00 655.00 500.00 655.75
  Z
  M 602.30 369.16
  C 592.19 363.19 579.40 360.12 567.82 360.09
  Q 536.26 360.00 500.42 360.05
  A 0.42 0.42 0.0 0 0 500.00 360.47
  L 500.00 494.29
  A 0.46 0.45 -90.0 0 0 500.45 494.75
  Q 533.89 494.75 565.80 494.74
  C 600.81 494.74 627.33 475.30 632.16 439.75
  C 635.96 411.78 627.12 383.81 602.30 369.16
  Z"
/>
</svg>
